<?xml version="1.0" encoding="utf-8"?>
<!-- Generator: Adobe Illustrator 25.4.1, SVG Export Plug-In . SVG Version: 6.00 Build 0)  -->
<svg version="1.1" id="Layer_1" xmlns="http://www.w3.org/2000/svg" xmlns:xlink="http://www.w3.org/1999/xlink" x="0px" y="0px"
	 viewBox="0 0 358.73 427.15" style="enable-background:new 0 0 358.73 427.15;" xml:space="preserve">
<style type="text/css">
	.st0{fill:none;stroke:#000000;stroke-miterlimit:10;}
	.st1{fill:#754C29;}
</style>
<path class="st0" d="M274.17,357.83c-2.67,18.52-10.64,46.18-34.28,59.41c-4.76,2.66-11.03,5.23-19.04,6.51H56.88
	c-8.01-1.28-14.28-3.85-19.04-6.51c-35.51-19.87-35.67-72.28-35.62-77.4V172.03h273.29v167.81
	C275.53,341.55,275.52,348.54,274.17,357.83z"/>
<path class="st0" d="M247.11,345.84c-2.14,14.82-8.51,36.94-27.42,47.53c-3.81,2.13-8.82,4.18-15.23,5.21H73.28
	c-6.41-1.02-11.42-3.08-15.23-5.21c-28.41-15.9-28.54-57.82-28.5-61.92V197.2h218.63v134.25
	C248.2,332.81,248.19,338.41,247.11,345.84z"/>
<path class="st1" d="M247.11,356.23c-2.14,13.05-8.51,32.54-27.42,41.86c-3.81,1.87-8.82,3.69-15.23,4.59H73.28
	c-6.41-0.9-11.42-2.71-15.23-4.59c-28.41-14-28.54-50.93-28.5-54.54V225.31h218.63v118.25
	C248.19,344.76,248.19,349.68,247.11,356.23z"/>
<path class="st0" d="M358.73,274.63c0,45.96-37.26,83.22-83.22,83.22c-0.45,0-0.89,0-1.34-0.02c1.35-9.29,1.36-16.28,1.34-17.99
	v-2.79c34.47,0,62.42-27.95,62.42-62.42c0-34.47-27.95-62.41-62.42-62.41v-20.81C321.47,191.41,358.73,228.67,358.73,274.63z"/>
<path class="st0" d="M248.18,233.67"/>
<path class="st0" d="M29.55,233.67"/>
<path class="st0" d="M45.48,2.85C35.89,9.07,24.37,18.87,22.77,32.3c-3.35,28.14,40.1,44.71,39.73,76.71
	c-0.11,9.8-4.37,23.72-23.97,40.41"/>
<path class="st0" d="M45.48,2.85C35.89,9.07,24.37,18.87,22.77,32.3c-3.35,28.14,40.1,44.71,39.73,76.71
	c-0.11,9.8-4.37,23.72-23.97,40.41"/>
<path class="st0" d="M141.8,3.19c-9.59,6.22-21.11,16.02-22.71,29.45c-3.35,28.14,40.1,44.71,39.73,76.71
	c-0.11,9.8-4.37,23.72-23.97,40.41"/>
<path class="st0" d="M236.07,3.54c-9.59,6.22-21.11,16.02-22.71,29.45c-3.35,28.14,40.1,44.71,39.73,76.71
	c-0.11,9.8-4.37,23.72-23.97,40.41"/>
</svg>
