<?xml version="1.0" encoding="utf-8"?>
<!-- Generator: Adobe Illustrator 25.4.1, SVG Export Plug-In . SVG Version: 6.00 Build 0)  -->
<svg version="1.1" id="Layer_1" xmlns="http://www.w3.org/2000/svg" xmlns:xlink="http://www.w3.org/1999/xlink" x="0px" y="0px"
	 viewBox="0 0 100 100" style="enable-background:new 0 0 100 100;" xml:space="preserve">
<style type="text/css">
	.st0{fill:#FFFFFF;}
</style>
<g>
	<polygon class="st0" points="50.67,75.92 21.49,90.13 27.96,58.33 5.43,34.97 37.68,31.3 52.93,2.65 66.39,32.19 98.35,37.84 
		74.42,59.76 78.92,91.91 	"/>
	<path d="M52.9,3.78l12.93,28.37l0.22,0.48l0.52,0.09l30.7,5.43L74.28,59.22l-0.39,0.36l0.07,0.52l4.32,30.88L51.15,75.62
		l-0.46-0.26l-0.47,0.23L22.18,89.24l6.22-30.55l0.1-0.52l-0.36-0.38L6.5,35.35l30.98-3.53L38,31.77l0.25-0.46L52.9,3.78
		 M52.97,1.52L37.36,30.83L4.37,34.59l23.05,23.9L20.8,91.02l29.85-14.54l28.9,16.35l-4.6-32.88l24.48-22.43l-32.7-5.79L52.97,1.52
		L52.97,1.52z"/>
</g>
</svg>
